<svg xmlns="http://www.w3.org/2000/svg" width="240" height="234" viewBox="0 0 240 234">
  <defs>
    <style>
      .cls-1 {
        fill: #001e36;
      }

      .cls-2 {
        fill: #31a8ff;
      }
    </style>
  </defs>
  <g id="Layer_2" data-name="Layer 2">
    <g id="Surfaces">
      <g id="Photo_Surface" data-name="Photo Surface">
        <g id="Outline_no_shadow" data-name="Outline no shadow">
          <rect class="cls-1" width="240" height="234" rx="42.5"/>
        </g>
      </g>
    </g>
    <g id="Outlined_Mnemonics_Logos" data-name="Outlined Mnemonics &amp; Logos">
      <g id="Ps">
        <g>
          <path class="cls-2" d="M48.88706,164.09521V61.21631c0-.74976.32227-1.127.96631-1.127,1.71533,0,3.28158-.02515,5.64388-.08057q3.53979-.07911,7.64746-.16089,4.106-.07947,8.69434-.16113,4.58788-.07911,9.09619-.08057,12.23364,0,20.60791,3.05908A35.755,35.755,0,0,1,114.987,70.87622a31.49585,31.49585,0,0,1,7.32519,11.35059,37.64871,37.64871,0,0,1,2.2544,12.96045q0,12.88256-5.957,21.252a33.65844,33.65844,0,0,1-16.1001,12.15552c-6.76221,2.52319-14.27637,3.3789-22.54,3.3789q-3.54346,0-4.99121-.08056-1.44873-.07947-4.34668-.08057v32.12183a1.28093,1.28093,0,0,1-1.44922,1.449H50.014C49.26206,165.3833,48.88706,164.95557,48.88706,164.09521Zm21.74447-84.686v33.55493q2.09033.16224,3.86377.16089h5.313A37.75929,37.75929,0,0,0,91.32,111.28735a17.35824,17.35824,0,0,0,8.21094-5.313q3.13917-3.70167,3.13965-10.304a16.2828,16.2828,0,0,0-2.335-8.85522,15.014,15.014,0,0,0-7.00342-5.71534A29.83951,29.83951,0,0,0,81.57928,79.0874q-3.86425,0-6.84228.08032Q71.756,79.25085,70.63153,79.40918Z"/>
          <path class="cls-2" d="M186.81653,106.863a37.643,37.643,0,0,0-9.57959-3.3811,50.87491,50.87491,0,0,0-11.18945-1.28809,20.82187,20.82187,0,0,0-6.0376.72461,5.42478,5.42478,0,0,0-3.13965,2.01245,5.07,5.07,0,0,0-.80468,2.73706,4.27531,4.27531,0,0,0,.96582,2.57593,10.95812,10.95812,0,0,0,3.38086,2.65649,67.44805,67.44805,0,0,0,7.084,3.30054,70.20105,70.20105,0,0,1,15.37549,7.32544,23.38251,23.38251,0,0,1,7.88916,8.2915,22.10738,22.10738,0,0,1,2.33447,10.3042,23.143,23.143,0,0,1-3.86377,13.28247,25.4157,25.4157,0,0,1-11.18994,8.93531q-7.32787,3.219-18.1123,3.22021a65.50384,65.50384,0,0,1-13.6045-1.28808,43.40843,43.40843,0,0,1-10.22363-3.22,2.08509,2.08509,0,0,1-1.12695-1.93213V143.73187a.94571.94571,0,0,1,.40283-.8855.781.781,0,0,1,.88525.08057,43.01126,43.01126,0,0,0,12.397,4.9104,51.12175,51.12175,0,0,0,11.75293,1.52954q5.63378,0,8.2915-1.449a4.5512,4.5512,0,0,0,2.65674-4.186q0-2.09034-2.415-4.02491-2.41479-1.93212-9.82129-4.66918a59.18382,59.18382,0,0,1-14.24854-7.24488,24.57177,24.57177,0,0,1-7.56689-8.45263,22.20179,22.20179,0,0,1-2.33447-10.22339,23.08036,23.08036,0,0,1,3.38086-12.075,24.5704,24.5704,0,0,1,10.46533-9.177q7.08252-3.53943,17.71-3.542a78.401,78.401,0,0,1,12.397.8855A32.49681,32.49681,0,0,1,187.558,87.5429a1.46829,1.46829,0,0,1,.96582.8855,4.4483,4.4483,0,0,1,.16113,1.20752v16.261a1.08221,1.08221,0,0,1-.48291.96606A1.556,1.556,0,0,1,186.81653,106.863Z"/>
        </g>
      </g>
    </g>
  </g>
</svg>
